<svg width="914" height="400" fill="none" xmlns="http://www.w3.org/2000/svg"><path fill="#fff" d="M0 0h914v400H0z"/><path d="M433.677 209c.7 0 1.26-.56 1.26-1.26s-.56-1.26-1.26-1.26h-.672v-4.816c0-1.736.7-3.024 2.8-3.024 1.82 0 2.464 1.092 2.464 2.688v5.152h-.672c-.7 0-1.26.56-1.26 1.26 0 .728.56 1.26 1.26 1.26h4.368c.7 0 1.26-.56 1.26-1.26s-.56-1.26-1.26-1.26h-.672v-5.712c0-2.436-.896-4.872-4.704-4.872-1.876 0-3.052.868-3.584 1.68 0-.812-.616-1.288-1.428-1.288h-2.268c-.7 0-1.26.56-1.26 1.26 0 .728.56 1.26 1.26 1.26h.672v7.672h-.672c-.7 0-1.26.56-1.26 1.26 0 .728.56 1.26 1.26 1.26h4.368Zm11.786-12.712c-.7 0-1.26.56-1.26 1.26s.56 1.26 1.26 1.26h.672v13.3h-.672c-.7 0-1.26.56-1.26 1.26s.56 1.26 1.26 1.26h4.816c.7 0 1.26-.56 1.26-1.26s-.56-1.26-1.26-1.26h-1.12v-3.948c.672.756 1.904 1.204 3.304 1.204 3.64 0 5.684-2.184 5.684-6.748s-2.016-6.72-5.684-6.72c-1.568 0-2.884.98-3.304 1.68 0-.84-.672-1.288-1.512-1.288h-2.184Zm6.608 10.5c-1.96 0-2.996-1.4-2.996-4.144 0-2.772 1.036-4.172 2.996-4.172s2.996 1.4 2.996 4.172c0 2.744-1.036 4.144-2.996 4.144Zm14.104 2.576c2.296 0 3.836-1.008 4.48-1.596.336-.308.476-.672.476-1.036 0-.756-.588-1.344-1.344-1.344-.252 0-.532.056-.84.28-.644.476-1.484 1.12-2.772 1.12-1.96 0-3.024-1.484-3.024-4.172 0-2.632 1.064-4.144 3.024-4.144 1.4 0 2.128.728 2.492 1.092.252.252.588.476 1.036.476.756 0 1.344-.588 1.344-1.344 0-.336-.084-.56-.308-.868-.476-.644-1.988-1.932-4.564-1.932-3.78 0-6.076 2.156-6.076 6.72s2.296 6.748 6.076 6.748Zm11.848-.364c.7 0 1.26-.56 1.26-1.26s-.56-1.26-1.26-1.26h-.672v-2.604l1.176-1.064 3.724 5.6c.224.336.56.588 1.092.588h2.072c.7 0 1.26-.56 1.26-1.26s-.56-1.26-1.26-1.26h-1.064l-3.836-5.488 2.464-2.184h1.456c.7 0 1.26-.56 1.26-1.26s-.56-1.26-1.26-1.26h-1.96c-.364 0-.588.112-.868.364l-4.256 3.948v-10.08c0-.812-.616-1.456-1.428-1.456h-2.268c-.7 0-1.26.56-1.26 1.26 0 .728.56 1.26 1.26 1.26h.672v14.896h-.672c-.7 0-1.26.56-1.26 1.26 0 .728.56 1.26 1.26 1.26h4.368Z" fill="#333"/></svg>